<?xml version="1.0" encoding="UTF-8" standalone="no"?>
<!-- Created with Inkscape (http://www.inkscape.org/) -->

<svg
   xmlns:dc="http://purl.org/dc/elements/1.1/"
   xmlns:cc="http://creativecommons.org/ns#"
   xmlns:rdf="http://www.w3.org/1999/02/22-rdf-syntax-ns#"
   xmlns:svg="http://www.w3.org/2000/svg"
   xmlns="http://www.w3.org/2000/svg"
   xmlns:sodipodi="http://sodipodi.sourceforge.net/DTD/sodipodi-0.dtd"
   xmlns:inkscape="http://www.inkscape.org/namespaces/inkscape"
   width="46.95401mm"
   height="63.513947mm"
   viewBox="0 0 46.95401 63.513947"
   version="1.1"
   id="svg4345"
   inkscape:version="0.92.3 (2405546, 2018-03-11)"
   sodipodi:docname="logo_cp_naranjo.svg">
  <defs
     id="defs4339" />
  <sodipodi:namedview
     id="base"
     pagecolor="#ffffff"
     bordercolor="#666666"
     borderopacity="1.0"
     inkscape:pageopacity="0.0"
     inkscape:pageshadow="2"
     inkscape:zoom="0.98994949"
     inkscape:cx="-66.49116"
     inkscape:cy="78.763909"
     inkscape:document-units="mm"
     inkscape:current-layer="layer1"
     showgrid="false"
     fit-margin-top="0"
     fit-margin-left="0"
     fit-margin-right="0"
     fit-margin-bottom="0"
     inkscape:window-width="1920"
     inkscape:window-height="1009"
     inkscape:window-x="0"
     inkscape:window-y="0"
     inkscape:window-maximized="1" />
  <metadata
     id="metadata4342">
    <rdf:RDF>
      <cc:Work
         rdf:about="">
        <dc:format>image/svg+xml</dc:format>
        <dc:type
           rdf:resource="http://purl.org/dc/dcmitype/StillImage" />
        <dc:title></dc:title>
      </cc:Work>
    </rdf:RDF>
  </metadata>
  <g
     inkscape:label="Capa 1"
     inkscape:groupmode="layer"
     id="layer1"
     transform="translate(-18.856226,-44.50499)">
    <g
       id="g4948"
       style="fill:#e06f1a;fill-opacity:1">
      <path
         d="m 20.694936,91.11726 v -0.63959 c 0,-1.11442 0.2226,-2.67335 1.68486,-2.67335 0.41769,0 0.80786,0.58385 0.86325,0.73731 0.18133,0.0836 0.084,-0.37677 0.084,-0.57185 v 0.11253 c 0,-0.19508 0.0833,-0.27799 0.27834,-0.27799 h 0.5708 c 0.19508,0 0.27834,0.0829 0.27834,0.27799 v 2.81305 c 0,0.19474 -0.0833,0.2787 -0.27834,0.2787 h -0.52952 c -0.19438,0 -0.27834,-0.084 -0.29175,-0.2787 0.0134,0.0688 -0.0279,-0.91863 -0.0279,-1.11371 -0.0282,-0.37642 -0.18133,-0.69604 -0.59902,-0.69604 -0.40393,0 -0.59866,0.31962 -0.59866,0.69604 v 5.207 c 0,0.3623 0.15311,0.83643 0.59866,0.83643 0.26459,0 0.61278,-0.32103 0.61278,-0.59866 v -1.19874 c 0,-0.19509 0.0836,-0.27728 0.27834,-0.29281 -0.12524,0.0155 0.54293,-0.0416 0.69674,-0.0416 h 0.0413 c 0.0557,0 0.084,0 0.0974,0.0572 v 0.45791 c 0,1.33738 -0.23636,2.85503 -1.87995,2.85503 -0.98849,0 -1.75437,-0.76553 -1.82351,-1.73955 0,-0.61348 -0.0561,-3.56482 -0.0561,-4.20652"
         style="fill:#e06f1a;fill-opacity:1;fill-rule:nonzero;stroke:none;stroke-width:0.35277775"
         id="path1294"
         inkscape:connector-curvature="0" />
      <path
         d="m 25.125326,88.7896 c -0.12524,0 -0.18133,-0.042 -0.18133,-0.1397 v -1.76848 c 0,-0.0977 0.0561,-0.13829 0.18133,-0.13829 h 2.61796 c 0.13865,0 0.19439,0.0406 0.2085,0.13829 -0.0141,-0.13829 0.0557,0.15417 0.0557,0.29246 v 0.0568 0.0547 c -0.042,0.46002 -0.042,1.47602 -0.042,1.37865 0,0.0699 -0.0279,0.0974 -0.097,0.0974 h -0.25118 c -0.0688,0 -0.0974,0.0282 -0.0974,0.0974 0,-0.0974 -0.0416,1.17016 -0.0416,1.75542 v 0.80716 0.52811 c 0,0.59901 0.51541,0.5715 0.77964,0.5715 0.3623,0 0.54327,-0.0554 0.54327,-0.44556 v -3.24379 c 0,-0.0568 -0.0279,-0.084 -0.0974,-0.084 h -0.16722 c -0.0695,0 -0.097,-0.0275 -0.097,-0.0977 v -1.76848 c 0,-0.0977 0.0554,-0.13829 0.18062,-0.13829 h 2.77107 c 0.12524,0 0.18062,0.0406 0.18062,0.13829 v 1.79599 c 0,0.0974 -0.0554,0.14041 -0.18062,0.14041 h -0.2092 c -0.12523,0 -0.1531,-0.0282 -0.26423,0.20884 0,-0.13934 -0.0275,3.50838 -0.0695,5.27685 0,1.28094 -0.80821,2.31211 -2.56258,2.31211 -1.72614,0 -2.6871,-0.76553 -2.6871,-1.99249 v -5.69418 c 0,-0.0974 -0.0557,-0.13935 -0.18098,-0.13935 z"
         style="fill:#e06f1a;fill-opacity:1;fill-rule:nonzero;stroke:none;stroke-width:0.35277775"
         id="path1298"
         inkscape:connector-curvature="0" />
      <path
         d="m 34.027466,92.36698 0.72425,-0.2914 c 0.0833,-0.042 0.12523,-0.0145 0.12523,0.0829 0.0416,0.62689 0.0695,1.40688 0.0833,2.18581 h 1.07245 c 0,-0.57044 -0.0561,-1.09961 -0.0561,-1.5307 0,-0.0974 0.042,-0.13935 0.13935,-0.13935 h 1.33667 c 0.0977,0 0.13935,0.042 0.15346,0.13935 -0.0141,-0.13935 0.042,0.15275 0.042,0.29245 0.0833,1.18357 0.0554,2.40842 0.0554,3.45334 0,0.0977 -0.042,0.13865 -0.13935,0.13865 h -5.19365 c -0.0974,0 -0.13935,-0.0409 -0.13935,-0.13865 -0.0279,-0.55738 -0.0557,-1.42169 -0.0557,-2.00554 0,-0.0974 0.0416,-0.13899 0.13899,-0.13899 h 0.55704 c 0,-1.57409 -0.13935,-3.13408 -0.16722,-4.72158 h -0.50094 c -0.0974,0 -0.13935,-0.0406 -0.13935,-0.13829 v -2.04787 c 0,-0.0977 0.042,-0.13829 0.13935,-0.13829 h 3.04941 c 0.0974,0 0.13935,0.0406 0.13935,0.13829 v 2.04787 c 0,0.0977 -0.042,0.13829 -0.13935,0.13829 h -0.44591 c 0,0.5715 -0.055,1.5046 -0.0275,1.93675 0,0.0974 -0.0695,0.22225 -0.15311,0.2787 l -0.61277,0.41698 z"
         style="fill:#e06f1a;fill-opacity:1;fill-rule:nonzero;stroke:none;stroke-width:0.35277775"
         id="path1302"
         inkscape:connector-curvature="0" />
      <path
         d="m 38.222726,94.66966 0.0554,-0.0691 h 0.79375 v -4.02519 h -0.63993 c -0.19474,0 -0.27905,0.084 -0.27905,0.27905 v 0.54328 c 0,0.19473 -0.0833,0.27763 -0.27834,0.27763 h -1.08621 l -0.0974,-0.0547 c 0.0275,-1.24037 -0.0413,-2.47826 -0.0977,-3.71863 0.0279,-0.0409 0.0977,-0.0974 0.15311,-0.0974 h 6.30802 c 0.19509,0 0.27905,0.0836 0.27905,0.27869 v 3.25861 c 0,0.19509 -0.084,0.2787 -0.27905,0.2787 h -1.21144 c 0,0 -0.0413,-0.0282 -0.0413,-0.043 -0.0977,-0.37536 -0.0286,-0.59867 -0.0286,-1.00224 h -0.76517 v 1.83903 c 0,0.27869 0.0416,1.86619 0.0416,2.12936 h 0.75213 c 0,0 0.0692,0.0568 0.0974,0.084 0.0279,0 0.0416,0.042 0.0416,0.042 v 2.298 c 0,0.19508 -0.0833,0.27799 -0.27835,0.27799 h -3.10515 c -0.19473,0 -0.27904,-0.0829 -0.29245,-0.27799 0.0134,-0.43145 -0.042,-1.12818 -0.042,-1.85244 z"
         style="fill:#e06f1a;fill-opacity:1;fill-rule:nonzero;stroke:none;stroke-width:0.35277775"
         id="path1306"
         inkscape:connector-curvature="0" />
      <path
         d="m 43.684756,88.68641 c 0,-0.19508 0.084,-0.27799 0.27869,-0.27799 h 1.01671 c 0.19473,0 0.27834,0.0829 0.27834,0.27799 v 2.20063 c -0.0974,0.0829 -0.19473,0.18062 -0.19473,0.30762 v 0.51435 0.51506 c 0,0.34783 0.0554,2.35373 0.0554,2.70051 0,0.19509 0.12523,0.34925 0.32032,0.34925 0.1531,0 0.2226,-0.0699 0.26493,-0.19473 v -1.10032 c 0,-0.90558 0,-1.893 -0.0423,-2.84092 -0.0275,-0.12488 -0.12523,-0.22225 -0.25047,-0.25082 v -2.20063 c 0,-0.19508 0.0836,-0.27799 0.2787,-0.27799 h 0.83537 c 0.19509,0 0.27835,0.0829 0.27835,0.27799 v 2.15865 c 0,0.13934 -0.30586,0.16792 -0.30586,0.44556 v 5.41655 c 0,0.69638 -0.54328,1.14299 -1.18392,1.14299 -1.46192,0 -1.16946,-2.19992 -1.18357,-3.07727 0,-0.23848 -0.0557,-2.78483 -0.0557,-3.03636 0,-0.27905 0.0279,-0.82092 -0.39018,-0.84949 z"
         style="fill:#e06f1a;fill-opacity:1;fill-rule:nonzero;stroke:none;stroke-width:0.35277775"
         id="path1310"
         inkscape:connector-curvature="0" />
      <path
         d="m 50.963016,89.53579 h 0.98848 c 0.37606,0 0.54328,-0.40393 0.54328,-0.76658 0,-0.69603 -0.73801,-0.66852 -1.21144,-0.66852 h -0.32032 z m 0,3.25826 h 0.57079 c 0.19509,0 0.27835,0.0977 0.27835,0.31997 0.042,0.44556 0.042,1.00224 0.042,1.72685 v 0.41733 l -0.042,0.0554 h -4.65102 l -0.0974,-0.11112 v -2.15865 c 0,-0.22225 0.084,-0.30586 0.27834,-0.30586 h 0.55703 l 0.0557,-0.0843 c 0,0 0.0275,-3.09069 0.0561,-4.39914 v -0.0134 -0.0286 c 0,-0.0286 -0.0561,-0.084 -0.0561,-0.084 h -0.55668 c -0.19509,0 -0.2787,-0.0825 -0.2787,-0.30586 v -2.28389 l 0.0416,-0.042 h 1.07209 c 1.89407,0 3.32846,0 5.36117,0.042 1.26718,0.22331 2.11702,1.1423 2.11702,2.64513 0,0.73942 -0.19474,1.37901 -0.75212,1.85279 -0.0977,0.0977 -0.51541,0.19544 -0.58491,0.34784 0.89147,0.641 1.15535,1.14194 1.37866,2.26907 0,0.0145 0.0554,0.0843 0.0554,0.0843 h 0.51505 c 0.19544,0 0.27905,0.0836 0.27905,0.30586 v 2.02035 c 0,0.2085 -0.0836,0.30622 -0.27905,0.30622 l -2.82645,-0.0568 c -1.67076,-0.0272 -0.3482,-3.94088 -1.68487,-3.94088 h -0.84914 z"
         style="fill:#e06f1a;fill-opacity:1;fill-rule:nonzero;stroke:none;stroke-width:0.35277775"
         id="path1314"
         inkscape:connector-curvature="0" />
      <path
         d="m 58.243716,93.62428 h 0.45932 c 0,-0.58491 0,-1.19733 -0.26424,-1.74167 -0.16721,0.58526 -0.19508,1.67111 -0.19508,1.74167 m -1.60161,2.13042 c 0,-0.0974 0.0423,-0.15346 0.12523,-0.19508 l 0.084,-0.0279 c 0.36195,-0.80751 0.7239,-3.62056 0.94686,-5.48605 l -0.7934,0.0275 c -0.0977,0 -0.1397,-0.042 -0.12558,-0.13935 0.0699,-0.62724 -0.0141,-1.46191 0,-1.46191 0.0134,-0.0977 0.0557,-0.13935 0.1531,-0.13935 h 2.03306 c 0.13935,0 0.94685,5.9877 1.50389,7.22701 l 0.11112,0.0286 c 0.0977,0.013 0.1397,0.0691 0.1397,0.16651 0,0.19403 -0.0557,1.99108 -0.0557,1.92193 0,0.18133 -0.0145,0.22225 -0.13934,0.24906 h -1.86584 c -0.0977,0 -0.1397,-0.0402 -0.1397,-0.13793 v -2.06128 c 0,-0.0974 0.042,-0.13829 0.1397,-0.13829 h 0.20884 v -0.11218 c 0,-0.26459 -0.0557,-0.80787 -0.0977,-0.94686 l -0.0833,-0.0557 h -0.61278 c 0,0 -0.0836,0.19473 -0.0836,0.27799 0,0.23813 0.0416,0.83679 0.0416,0.83679 h 0.0974 c 0.0974,0 0.13935,0.0409 0.13935,0.13829 v 2.06128 c 0,0.0977 -0.042,0.13793 -0.13935,0.13793 h -1.4478 c -0.0974,0 -0.1397,-0.0402 -0.1397,-0.13793 z"
         style="fill:#e06f1a;fill-opacity:1;fill-rule:nonzero;stroke:none;stroke-width:0.35277775"
         id="path1318"
         inkscape:connector-curvature="0" />
      <path
         d="m 22.325856,102.0291 c 0.53728,-0.14605 0.53728,-0.51118 0.53728,-0.91475 0,-0.22331 0.0519,-0.85161 -0.4579,-0.85161 -0.0272,0 -0.14429,-0.0251 -0.14429,0.0388 v 1.5815 z m -2.10432,5.64797 c 0.0123,0.0257 -0.0526,-0.99448 -0.0526,-1.22802 v -0.0275 c 0,-0.11783 0.69321,-0.11783 0.69321,-0.11783 v -6.15773 h -0.28752 c -0.2353,0 -0.34078,-0.078 -0.34078,-0.2607 v -1.17934 c 0,-0.18132 0.10548,-0.2607 0.34078,-0.2607 l 2.22215,0.0409 c 1.47743,0.0261 1.46509,1.96039 1.46509,2.67899 0,1.09891 -0.10443,2.60245 -2.00096,2.53648 v 2.60208 c 0.36618,-0.0247 0.61489,0.0399 0.70556,0.10478 v 1.36102 c 0,0.18274 -0.10337,0.26105 -0.33938,0.24765 -0.30127,0.0134 -1.76494,-0.0526 -2.05246,-0.0649 -0.2353,-0.0134 -0.34078,-0.0134 -0.34078,-0.0134 0,0 0,-0.0783 -0.0123,-0.26176"
         style="fill:#e06f1a;fill-opacity:1;fill-rule:nonzero;stroke:none;stroke-width:0.35277775"
         id="path1322"
         inkscape:connector-curvature="0" />
      <path
         d="m 26.588476,105.46385 c 0.14358,0 0.35313,-0.0519 0.35313,-0.26105 0,-0.49636 0.0392,-2.82434 0.0392,-3.32176 v -1.52964 -1.79035 c -0.11783,-0.14535 -0.19685,-0.1965 -0.36548,-0.1965 -0.20955,0 -0.43216,0.13088 -0.43216,0.35172 0,0.47131 -0.0526,2.77319 -0.0526,3.27096 v 1.41217 1.65946 c 0.0526,0.27446 0.14429,0.40499 0.45791,0.40499 m 0,1.14935 c -0.83609,0 -1.86973,-0.2473 -1.86973,-1.30598 v -6.48547 c 0,-0.66675 0.40605,-1.62031 1.20368,-1.62031 h 1.26824 c 0.49636,0 1.20191,0.61454 1.20191,1.11125 v 6.23606 c 0,0.9151 -0.14287,1.89653 -1.20191,2.06445 z"
         style="fill:#e06f1a;fill-opacity:1;fill-rule:nonzero;stroke:none;stroke-width:0.35277775"
         id="path1326"
         inkscape:connector-curvature="0" />
      <path
         d="m 32.004316,101.96225 0.0519,0.10407 h 0.11748 c 0.45755,0 0.98072,-0.12877 0.98072,-0.67769 0,-0.37853 -0.19544,-0.57573 -0.57538,-0.57573 -0.57468,0 -0.57468,0.36618 -0.57468,0.87383 z m -3.07269,4.35398 v -0.82197 c 0.0522,-0.2099 0.70626,0.0522 0.70626,-0.56339 v -1.15005 c 0,-1.03258 0,-1.60832 -0.0526,-2.66665 -0.0783,-0.32773 -0.45756,-0.37959 -0.70591,-0.40569 0,-0.35384 -0.0526,-1.96039 -0.0526,-2.31458 V 98.342 c 0.0258,-0.0275 0.0787,-0.0543 0.10477,-0.0543 h 4.62809 c 1.59597,0.3549 2.47086,1.00789 2.47086,2.79965 0,2.39218 -1.9872,2.53611 -3.93524,2.58797 v 0.18486 c 0,0.35066 0.0258,0.60007 0.0529,1.03328 0.0907,0.20744 0.2092,0.31151 0.36548,0.36478 0.10513,0.0399 0.75777,0.0522 0.9151,0.078 0.0261,0.51047 0.0529,1.51765 0.0529,2.19674 l -0.2487,0.27411 c 0,0 -2.91571,0.0265 -3.94865,0.0533 h -0.15663 c -0.0265,0 -0.14393,-0.18345 -0.14393,-0.26176 -0.0783,-0.49777 -0.0522,-0.74471 -0.0522,-1.28235"
         style="fill:#e06f1a;fill-opacity:1;fill-rule:nonzero;stroke:none;stroke-width:0.35277775"
         id="path1330"
         inkscape:connector-curvature="0" />
      <path
         d="m 36.445896,99.69022 c -0.0967,0 -0.13935,-0.0388 -0.13935,-0.13159 v -1.65982 c 0,-0.0907 0.0427,-0.13194 0.13935,-0.13194 h 2.23202 c 0.10831,0 0.15135,0.0413 0.16228,0.13194 -0.0109,-0.13194 0.0423,0.14288 0.0423,0.27341 v 0.0554 0.0501 c -0.0328,0.43039 0.0296,1.38641 0.0296,1.29434 0,0.066 -0.0212,0.0921 -0.0744,0.0921 h -0.25682 c -0.0529,0 -0.0744,0.0261 -0.0744,0.0907 0,-0.0907 -0.0321,1.09855 -0.0321,1.64853 v 0.75776 0.49636 c 0,0.56233 0.39829,0.53622 0.60254,0.53622 0.27905,0 0.4191,-0.0497 0.4191,-0.41698 v -3.04694 c 0,-0.0533 -0.0208,-0.0783 -0.0759,-0.0783 h -0.12875 c -0.0533,0 -0.0748,-0.0257 -0.0748,-0.0928 v -1.65982 c 0,-0.0907 0.043,-0.13194 0.13935,-0.13194 h 2.1403 c 0.0974,0 0.14006,0.0413 0.14006,0.13194 v 1.68593 c 0,0.0917 -0.0427,0.13264 -0.14006,0.13264 h -0.16122 c -0.097,0 -0.11853,-0.0272 -0.20355,0.19509 0,-0.12947 -0.0226,3.29459 -0.054,4.9537 0,1.20333 -0.62406,2.17347 -1.98014,2.17347 -1.3335,0 -2.07469,-0.72002 -2.07469,-1.87149 v -5.34776 c 0,-0.0907 -0.0434,-0.13017 -0.14005,-0.13017 z"
         style="fill:#e06f1a;fill-opacity:1;fill-rule:nonzero;stroke:none;stroke-width:0.35277775"
         id="path1334"
         inkscape:connector-curvature="0" />
      <path
         d="m 42.669986,100.39542 h -0.31397 c -0.0917,0 -0.13018,-0.0409 -0.13018,-0.13264 v -1.84221 c 0,-0.0896 0.0385,-0.13264 0.13018,-0.13264 h 2.21015 l 0.0522,0.1845 v 0.45826 0.65193 c 0,0.23672 -0.0522,0.8128 -0.0399,0.54963 -0.0123,0.1838 -0.35277,0.26317 -0.53551,0.26317 h -0.0526 c -0.18239,0 -0.26176,0.0773 -0.26176,0.2607 v 3.88374 c 0,0.18238 0.0794,0.2741 0.26176,0.2868 h 0.013 c 0.18238,0.0134 0.2614,-0.066 0.2614,-0.2487 v -1.05904 c 0,-0.18239 0.34008,-0.26071 0.52317,-0.26071 h 0.0123 c 0.1838,0 0.26212,0.0783 0.26212,0.26071 v 3.20463 c 0,0.18239 -0.0783,0.26035 -0.26212,0.26035 h -2.39148 c -0.0917,0 -0.13123,-0.0395 -0.14464,-0.13088 -0.0127,0.0656 -0.0385,-0.26211 -0.0261,-0.20814 -0.0123,-0.0914 -0.0123,-0.1718 -0.0123,-0.26388 0,-0.37888 -0.0261,-1.55434 -0.0261,-1.4231 0,-0.0917 0.0384,-0.13124 0.13018,-0.13124 h 0.34008 z"
         style="fill:#e06f1a;fill-opacity:1;fill-rule:nonzero;stroke:none;stroke-width:0.35277775"
         id="path1338"
         inkscape:connector-curvature="0" />
      <path
         d="m 50.235096,101.28993 c 0.34008,0 0.85055,-0.0533 1.05939,-0.0667 v -0.20638 c 0,-0.19862 -0.4572,-1.41394 -0.54927,-1.41394 -0.36619,0 -0.71967,1.20262 -0.71967,1.49331 0,0.14041 0.0928,0.19368 0.20955,0.19368 m -4.56318,3.89607 c 0,-0.39123 -0.0646,-1.18851 0.18415,-1.54305 0.22119,-0.2607 0.71861,0.0395 0.99271,-0.15663 0.27517,-0.15769 0.58914,-1.54305 0.75918,-1.96144 0.22155,-0.57609 1.81681,-4.8641 2.03906,-4.8888 0.51047,-0.0152 1.1243,-0.10689 1.63442,-0.10689 0.41839,0 1.54305,-0.10478 1.90888,0.17216 0.24906,0.16756 0.41839,1.10878 0.51011,1.37054 0.15734,0.45825 2.10503,5.53226 2.27472,5.53226 h 0.889 c 0.0529,0 0.10583,0.14393 0.10583,0.14393 v 1.86831 c 0,0.2099 -0.53763,0.14535 -0.54998,0.14535 h -0.31362 c -0.066,-0.10443 -0.10477,-0.10443 -0.20885,-0.10443 -0.0667,0 -0.10512,0 -0.15733,0.10443 -0.4318,0 -2.40559,0.0646 -2.85115,0.0646 h -0.69215 c -0.43145,0 -1.42558,-0.0646 -1.42558,-0.0646 l -0.0395,-0.0399 v -2.01331 c 0,-0.0656 0.13124,-0.10442 0.13124,-0.10442 0,0 0.37923,-0.0261 0.53587,-0.066 0.0924,0 0.45826,-0.0519 0.54998,-0.0519 v -0.0787 c 0.0649,-0.60184 -0.48472,-0.53481 -0.889,-0.50976 -0.56268,0 -0.90241,0 -1.46474,0.0656 -0.23601,0.0783 -0.26211,0.36512 -0.26211,0.61453 h 1.21673 v 2.1837 c 0,0 -0.32703,0.0646 -0.43145,0.0646 h -1.89688 c -0.35278,0 -1.9611,-0.0646 -2.31352,-0.0646 -0.2092,-0.066 -0.23601,-0.34043 -0.23601,-0.57573"
         style="fill:#e06f1a;fill-opacity:1;fill-rule:nonzero;stroke:none;stroke-width:0.35277775"
         id="path1342"
         inkscape:connector-curvature="0" />
      <path
         d="m 58.578396,101.93745 c 0,0.31538 0,0.62794 0.0519,0.94227 0.889,0 1.68734,-0.22225 1.68734,-1.26753 0,-0.8509 -0.45756,-1.25765 -1.28129,-1.25765 -0.18309,0 -0.26212,0 -0.45791,0.0547 v 0.90134 z m -0.95497,4.47287 v -5.95031 l -0.0515,-0.0508 c -0.0917,0.0124 -0.1838,0.0124 -0.27481,0.0124 -0.24836,0 -0.49671,-0.0261 -0.73202,-0.067 0,-0.21978 -0.0526,-1.2266 -0.0526,-1.46367 -0.16968,-0.14217 2.06587,-0.11818 2.35444,-0.11818 1.11019,0 2.51072,0.17145 2.51072,2.26307 v 0.65334 c 0,0.8629 -0.877,1.36067 -1.42628,1.54411 v 0.0511 c 0.48331,0.11783 0.66746,0.26141 0.84984,0.6918 0.19615,0.47202 -0.10512,2.32763 0.51012,2.32763 0.14323,0 0.27376,-0.13018 0.27376,-0.29916 v -0.83784 c 0,-0.091 0.0395,-0.12842 0.13123,-0.12842 h 0.16969 c 0.0907,0 0.13123,0.0374 0.13123,0.12842 v 1.38782 c 0,0.60219 -0.50977,1.30704 -1.13736,1.30704 -0.82373,0 -0.95461,-1.15076 -0.98072,-1.766 0,-2.28706 -0.19614,-2.51072 -1.3208,-2.51072 v 2.8381 h 0.77153 c 0.0914,0 0.13123,0.0384 0.13123,0.13158 v 1.22767 c 0,0.0903 -0.0399,0.13053 -0.13123,0.13053 h -2.60209 c -0.0917,0 -0.12983,-0.0402 -0.12983,-0.13053 v -1.24037 c 0,-0.0921 0.0381,-0.13158 0.12983,-0.13158 z"
         style="fill:#e06f1a;fill-opacity:1;fill-rule:nonzero;stroke:none;stroke-width:0.35277775"
         id="path1346"
         inkscape:connector-curvature="0" />
      <path
         d="m 46.851816,47.02124 c 0.87101,0.21978 1.71027,0.50729 2.51319,0.85831 l -2.20627,-3.17253 c 0,0 -0.0346,0.31997 -0.0706,0.53163 -0.0363,0.21132 -0.1591,0.2219 -0.31186,0.21943 -0.0861,-0.001 -0.36865,-0.006 -0.59725,-0.008 l -0.003,0.17357 0.80116,0.45014 z"
         style="fill:#e06f1a;fill-opacity:1;fill-rule:nonzero;stroke:none;stroke-width:0.35277775"
         id="path1350"
         inkscape:connector-curvature="0" />
      <path
         d="m 36.006656,77.25197 c 0,0 1.53458,6.45442 1.69791,7.27427 0.16369,0.81951 0.66428,1.03294 1.15641,1.07844 0.49212,0.0459 1.48414,0.13724 1.48414,0.13724 l 0.20284,-1.16946 -2.35549,-6.75817 c -0.74507,-0.13723 -1.47426,-0.32808 -2.18581,-0.56232"
         style="fill:#e06f1a;fill-opacity:1;fill-rule:nonzero;stroke:none;stroke-width:0.35277775"
         id="path1354"
         inkscape:connector-curvature="0" />
      <path
         d="m 55.575656,70.47027 c 0,0 7.26828,-1.67569 9.07309,-2.11772 1.80517,-0.44239 0.96732,-2.91748 0.96732,-2.91748 l -8.90305,3.08681 c -0.33162,0.67028 -0.71262,1.32115 -1.13736,1.94839"
         style="fill:#e06f1a;fill-opacity:1;fill-rule:nonzero;stroke:none;stroke-width:0.35277775"
         id="path1358"
         inkscape:connector-curvature="0" />
      <path
         d="m 47.440596,51.36499 0.4378,1.43545 -1.19803,-0.90452 -1.22873,0.86043 0.48895,-1.41888 -1.19768,-0.90311 1.49966,0.0272 0.48966,-1.41817 0.43744,1.43475 1.50037,0.0268 z m 6.36376,19.58093 c 3.73945,-4.35081 4.85211,-10.42141 2.33081,-15.61676 -0.78705,-1.62172 -1.86373,-3.01484 -3.14219,-4.16243 l -0.73731,-2.4444 1.27106,-1.07103 0.0557,-0.49495 -1.67323,0.41593 0.0702,-0.61313 0.89571,-0.81668 -0.0131,-0.47449 -0.75601,0.18274 0.46708,-1.34373 -0.97261,-0.002 -2.1269,4.35504 c -0.90558,-0.41663 -1.85667,-0.74507 -2.83951,-0.97508 -1.22766,-0.28716 -1.64182,1.3596 -2.93511,1.38148 -1.27952,0.0212 -3.40818,-1.46826 -4.93042,-1.62031 -1.18321,-0.11748 -1.1116,2.01542 -1.08796,3.13655 0.0162,0.74718 4.31023,2.96791 5.98205,4.39596 0.0991,0.085 0.16898,0.16792 0.21696,0.2473 l -5.48817,-1.11266 c 0,0 -2.21085,0.56762 -2.80599,0.72284 -0.59549,0.15451 -0.38629,0.68439 0.24483,0.55527 0.36371,-0.0737 1.18286,-0.2413 1.81151,-0.36971 0.46179,-0.0935 0.82585,-0.12735 0.90029,0.51823 0.0741,0.64558 0.19191,1.66723 0.19191,1.66723 l 0.23389,0.0469 c 0,0 0.48542,-0.96661 0.53481,-1.08197 0.049,-0.11536 0.15205,-0.21802 0.27376,0.10266 0.0762,0.1979 0.25682,0.67239 0.38382,1.00541 0.0787,0.20567 0.2279,0.22084 0.42863,-0.0829 0.20037,-0.30374 0.59725,-0.90417 0.59725,-0.90417 l 0.27517,1.35291 0.25823,0.10653 0.38453,-1.33526 c 0.005,0.002 0.0106,0.003 0.0162,0.005 0.90205,0.27164 1.78152,0.63747 2.60385,1.1243 0.56691,0.33655 1.1056,0.7366 1.59314,1.20015 0.85937,-0.10971 3.16689,-0.15557 4.27885,2.24085 0,0 -1.27247,-0.92287 -2.73474,-0.0589 0.67204,0.18344 2.38337,0.85478 2.47368,2.96086 0,0 -0.68509,-1.10737 -2.08033,-0.86325 0.44873,0.40041 1.21603,1.32821 0.69779,2.67477 0,0 -0.12417,-0.85584 -0.998,-1.16523 -0.0388,0.11007 -0.0811,0.21872 -0.127,0.32491 -0.3616,0.84596 -0.91052,1.55822 -1.53247,2.15124 -0.62548,0.59337 -1.32821,1.0735 -2.0634,1.4672 0.64065,-0.53446 1.21603,-1.13665 1.6764,-1.80093 0.45932,-0.66216 0.80046,-1.39136 0.94651,-2.12937 0.0748,-0.36724 0.0977,-0.7366 0.0698,-1.0922 -0.0148,-0.1718 -0.0399,-0.36512 -0.0787,-0.51047 -0.0423,-0.19579 -0.09,-0.34254 -0.15346,-0.5087 -0.248,-0.64135 -0.68263,-1.17934 -1.2185,-1.60726 -0.56797,-0.45014 -1.23578,-0.77822 -1.94909,-1.00859 -0.72143,2.41688 -2.9651,4.88985 -6.1528,6.43714 -4.84012,2.34948 -10.01607,1.6732 -11.56053,-1.50886 -1.54446,-3.18276 1.12748,-7.66621 5.96759,-10.01536 0.69038,-0.33549 1.38712,-0.60677 2.07997,-0.8202 -10.88531,-0.32103 -11.15977,7.43761 -11.15977,7.43761 0,0 -0.8389,-0.58632 -1.21884,-1.90888 -0.61983,1.36137 -1.74943,4.70605 0.48895,7.50429 0,0 -1.70357,-0.26705 -3.11292,-0.4632 0.0843,0.49036 0.23213,0.96732 0.45262,1.4224 1.4732,3.03459 5.64233,4.20793 10.21503,3.22333 0.15417,-0.0335 0.36865,0.0564 0.19403,0.33761 -1.31375,2.11561 -6.92185,11.14743 -7.13035,11.47269 -0.23636,0.369 -0.28186,0.87277 0.45967,1.27105 0.74154,0.39829 1.9364,1.04105 1.9364,1.04105 l 2.56117,-6.37505 c 0,0 4.91737,-0.0928 8.05391,-3.63079 3.93348,1.64148 8.66493,1.61114 12.96635,-0.47695 0.52105,-0.25365 1.02059,-0.53199 1.50178,-0.82973 l 11.4046,7.08801 1.03681,-1.9297 c 0,0 -6.08506,-4.4076 -7.56991,-5.50862 -1.48554,-1.10102 -1.13418,-2.84304 -1.13418,-2.84304"
         style="fill:#e06f1a;fill-opacity:1;fill-rule:nonzero;stroke:none;stroke-width:0.35277775"
         id="path1362"
         inkscape:connector-curvature="0" />
    </g>
  </g>
</svg>
