<?xml version="1.0" encoding="UTF-8" standalone="no"?>
<!-- Created with Inkscape (http://www.inkscape.org/) -->

<svg
   xmlns:dc="http://purl.org/dc/elements/1.1/"
   xmlns:cc="http://creativecommons.org/ns#"
   xmlns:rdf="http://www.w3.org/1999/02/22-rdf-syntax-ns#"
   xmlns:svg="http://www.w3.org/2000/svg"
   xmlns="http://www.w3.org/2000/svg"
   xmlns:sodipodi="http://sodipodi.sourceforge.net/DTD/sodipodi-0.dtd"
   xmlns:inkscape="http://www.inkscape.org/namespaces/inkscape"
   width="71.276077mm"
   height="25.106607mm"
   viewBox="0 0 71.276077 25.106607"
   version="1.1"
   id="svg5001"
   inkscape:version="0.92.3 (2405546, 2018-03-11)"
   sodipodi:docname="logo_cp_naranjo_movil.svg">
  <defs
     id="defs4995" />
  <sodipodi:namedview
     id="base"
     pagecolor="#ffffff"
     bordercolor="#666666"
     borderopacity="1.0"
     inkscape:pageopacity="0.0"
     inkscape:pageshadow="2"
     inkscape:zoom="1.4"
     inkscape:cx="44.691031"
     inkscape:cy="-52.717646"
     inkscape:document-units="mm"
     inkscape:current-layer="layer1"
     showgrid="false"
     fit-margin-top="0"
     fit-margin-left="0"
     fit-margin-right="0"
     fit-margin-bottom="0"
     inkscape:window-width="1920"
     inkscape:window-height="1009"
     inkscape:window-x="0"
     inkscape:window-y="0"
     inkscape:window-maximized="1" />
  <metadata
     id="metadata4998">
    <rdf:RDF>
      <cc:Work
         rdf:about="">
        <dc:format>image/svg+xml</dc:format>
        <dc:type
           rdf:resource="http://purl.org/dc/dcmitype/StillImage" />
        <dc:title></dc:title>
      </cc:Work>
    </rdf:RDF>
  </metadata>
  <g
     inkscape:label="Capa 1"
     inkscape:groupmode="layer"
     id="layer1"
     transform="translate(-44.492914,-58.417169)">
    <g
       id="g5604"
       style="fill:#e06f1a;fill-opacity:1">
      <path
         d="m 45.018697,66.621949 v -0.63959 c 0,-1.11442 0.223308,-2.67335 1.684867,-2.67335 0.418041,0 0.807861,0.5842 0.8636,0.73695 0.180975,0.0843 0.08396,-0.37606 0.08396,-0.5715 v 0.11254 c 0,-0.19509 0.08326,-0.27799 0.278341,-0.27799 h 0.571148 c 0.194733,0 0.277988,0.0829 0.277988,0.27799 v 2.8127 c 0,0.19508 -0.08325,0.27904 -0.277988,0.27904 h -0.530225 c -0.194028,0 -0.277637,-0.084 -0.291395,-0.27904 0.01376,0.0688 -0.02787,-0.91828 -0.02787,-1.11337 -0.02858,-0.37641 -0.181681,-0.69603 -0.59937,-0.69603 -0.403225,0 -0.598664,0.31962 -0.598664,0.69603 v 5.207 c 0,0.3623 0.153106,0.83644 0.598664,0.83644 0.264584,0 0.612775,-0.32103 0.612775,-0.59902 v -1.19839 c 0,-0.19544 0.08361,-0.27728 0.278342,-0.29245 -0.124883,0.0152 0.54363,-0.042 0.697442,-0.042 h 0.04057 c 0.05574,0 0.08431,0 0.09772,0.0572 v 0.45826 c 0,1.33738 -0.236714,2.85432 -1.8796,2.85432 -0.989189,0 -1.755422,-0.76517 -1.824214,-1.73884 0,-0.61383 -0.05609,-3.56517 -0.05609,-4.20687"
         style="fill:#e06f1a;fill-opacity:1;fill-rule:nonzero;stroke:none;stroke-width:0.35277775"
         id="path1440"
         inkscape:connector-curvature="0" />
      <path
         d="m 49.449445,64.294109 c -0.125236,0 -0.181681,-0.042 -0.181681,-0.13935 v -1.76883 c 0,-0.0977 0.05645,-0.13829 0.181681,-0.13829 h 2.617963 c 0.138642,0 0.194381,0.0406 0.208492,0.13829 -0.01411,-0.13829 0.05574,0.15417 0.05574,0.29245 v 0.0571 0.0543 c -0.04198,0.46002 -0.04198,1.47602 -0.04198,1.37901 0,0.0695 -0.02787,0.097 -0.09737,0.097 h -0.250825 c -0.06879,0 -0.09737,0.0282 -0.09737,0.0977 0,-0.0977 -0.04163,1.17017 -0.04163,1.75507 v 0.80751 0.52811 c 0,0.59831 0.515408,0.5715 0.779992,0.5715 0.361597,0 0.542925,-0.0557 0.542925,-0.44591 v -3.24379 c 0,-0.0568 -0.02787,-0.084 -0.09737,-0.084 h -0.167215 c -0.0695,0 -0.09701,-0.0275 -0.09701,-0.0974 v -1.76883 c 0,-0.0977 0.05503,-0.13829 0.180269,-0.13829 h 2.771422 c 0.124884,0 0.180975,0.0406 0.180975,0.13829 v 1.79599 c 0,0.0974 -0.05609,0.14041 -0.180975,0.14041 h -0.20955 c -0.124883,0 -0.152752,-0.0282 -0.263877,0.20884 0,-0.13934 -0.02787,3.50838 -0.0695,5.27721 0,1.28093 -0.808214,2.31175 -2.562577,2.31175 -1.726495,0 -2.687461,-0.76553 -2.687461,-1.99249 v -5.69383 c 0,-0.0977 -0.05539,-0.1397 -0.18027,-0.1397 z"
         style="fill:#e06f1a;fill-opacity:1;fill-rule:nonzero;stroke:none;stroke-width:0.35277775"
         id="path1444"
         inkscape:connector-curvature="0" />
      <path
         d="m 58.35158,67.871489 0.7239,-0.2914 c 0.08361,-0.042 0.125589,-0.0145 0.125589,0.0833 0.04128,0.62653 0.0695,1.40617 0.08325,2.18545 h 1.072445 c 0,-0.57044 -0.05609,-1.0996 -0.05609,-1.5307 0,-0.0974 0.04198,-0.13935 0.139347,-0.13935 h 1.336675 c 0.09772,0 0.139347,0.042 0.153459,0.13935 -0.01411,-0.13935 0.04127,0.15311 0.04127,0.29281 0.08361,1.18321 0.05574,2.40806 0.05574,3.45334 0,0.0974 -0.04163,0.13829 -0.138994,0.13829 h -5.193594 c -0.09772,0 -0.139347,-0.0409 -0.139347,-0.13829 -0.02787,-0.55739 -0.05574,-1.4217 -0.05574,-2.00554 0,-0.0974 0.04198,-0.13935 0.138994,-0.13935 h 0.556683 c 0,-1.57374 -0.138994,-3.13373 -0.166864,-4.72123 h -0.500944 c -0.09772,0 -0.1397,-0.0406 -0.1397,-0.13864 v -2.04752 c 0,-0.0981 0.04198,-0.13829 0.1397,-0.13829 h 3.049411 c 0.09737,0 0.1397,0.0402 0.1397,0.13829 v 2.04752 c 0,0.0981 -0.04233,0.13864 -0.1397,0.13864 h -0.445911 c 0,0.57115 -0.05539,1.50425 -0.02752,1.9364 0,0.0974 -0.06985,0.22225 -0.153105,0.2787 l -0.612422,0.41733 z"
         style="fill:#e06f1a;fill-opacity:1;fill-rule:nonzero;stroke:none;stroke-width:0.35277775"
         id="path1448"
         inkscape:connector-curvature="0" />
      <path
         d="m 62.546496,70.174519 0.05539,-0.0692 h 0.79375 v -4.02518 h -0.639939 c -0.194381,0 -0.278694,0.084 -0.278694,0.27904 v 0.54293 c 0,0.19473 -0.08361,0.27763 -0.278695,0.27763 h -1.08585 l -0.09737,-0.0547 c 0.02752,-1.24001 -0.04127,-2.47826 -0.09772,-3.71863 0.02752,-0.0409 0.09772,-0.0974 0.153106,-0.0974 h 6.308019 c 0.195086,0 0.279047,0.0836 0.279047,0.27869 v 3.25861 c 0,0.19544 -0.08396,0.27869 -0.279047,0.27869 h -1.211439 c 0,0 -0.04128,-0.0282 -0.04128,-0.043 -0.09737,-0.375 -0.02858,-0.59831 -0.02858,-1.00189 h -0.765175 v 1.83868 c 0,0.27905 0.04127,1.86655 0.04127,2.12937 h 0.752475 c 0,0 0.06879,0.0572 0.09701,0.084 0.02822,0 0.04198,0.0423 0.04198,0.0423 v 2.29764 c 0,0.19509 -0.08361,0.27834 -0.278694,0.27834 h -3.104797 c -0.195086,0 -0.2794,-0.0833 -0.292453,-0.27834 0.01305,-0.43145 -0.04233,-1.12818 -0.04233,-1.85208 z"
         style="fill:#e06f1a;fill-opacity:1;fill-rule:nonzero;stroke:none;stroke-width:0.35277775"
         id="path1452"
         inkscape:connector-curvature="0" />
      <path
         d="m 68.008871,64.191099 c 0,-0.19544 0.08396,-0.27799 0.278342,-0.27799 h 1.017058 c 0.194381,0 0.278342,0.0825 0.278342,0.27799 v 2.20062 c -0.09737,0.0829 -0.195086,0.18027 -0.195086,0.30763 v 0.51399 0.51541 c 0,0.34819 0.05539,2.35373 0.05539,2.70051 0,0.19474 0.125942,0.34925 0.321028,0.34925 0.1524,0 0.22225,-0.0695 0.264583,-0.19508 v -1.10032 c 0,-0.90522 0,-1.89265 -0.04233,-2.84091 -0.02788,-0.12453 -0.125243,-0.2219 -0.250479,-0.25048 v -2.20062 c 0,-0.19544 0.08361,-0.27799 0.278694,-0.27799 h 0.835378 c 0.195085,0 0.278341,0.0825 0.278341,0.27799 v 2.15829 c 0,0.14005 -0.305858,0.16828 -0.305858,0.44591 v 5.4162 c 0,0.69673 -0.543278,1.14335 -1.183922,1.14335 -1.461911,0 -1.169811,-2.19957 -1.18357,-3.07728 0,-0.23848 -0.05574,-2.78483 -0.05574,-3.03636 0,-0.27904 0.02787,-0.82091 -0.390173,-0.84949 z"
         style="fill:#e06f1a;fill-opacity:1;fill-rule:nonzero;stroke:none;stroke-width:0.35277775"
         id="path1456"
         inkscape:connector-curvature="0" />
      <path
         d="m 75.286959,65.040299 h 0.988835 c 0.375357,0 0.542925,-0.40393 0.542925,-0.76658 0,-0.69603 -0.73801,-0.66852 -1.211437,-0.66852 h -0.320323 z m 0,3.25826 h 0.570442 c 0.195085,0 0.278693,0.0981 0.278693,0.31997 0.04233,0.44556 0.04233,1.00224 0.04233,1.72684 v 0.41734 l -0.04233,0.0557 h -4.650668 l -0.09772,-0.11148 v -2.15864 c 0,-0.22225 0.08396,-0.30586 0.277987,-0.30586 h 0.55739 l 0.05609,-0.0843 c 0,0 0.02752,-3.09068 0.05609,-4.39878 v -0.0138 -0.0286 c 0,-0.0279 -0.05609,-0.0836 -0.05609,-0.0836 h -0.557036 c -0.195088,0 -0.278341,-0.0829 -0.278341,-0.30586 v -2.28389 l 0.04163,-0.0416 h 1.071385 c 1.894416,0 3.328106,0 5.361516,0.0416 1.26718,0.22331 2.117022,1.14194 2.117022,2.64548 0,0.73907 -0.195088,1.37831 -0.752123,1.85244 -0.09772,0.0974 -0.515409,0.19544 -0.584907,0.34749 0.890765,0.64099 1.155348,1.14194 1.378657,2.26906 0,0.0145 0.05503,0.0843 0.05503,0.0843 h 0.515411 c 0.19544,0 0.279048,0.0836 0.279048,0.30585 v 2.02072 c 0,0.20813 -0.08361,0.30585 -0.279048,0.30585 l -2.826456,-0.0564 c -1.670754,-0.0268 -0.348544,-3.94123 -1.684867,-3.94123 h -0.849135 z"
         style="fill:#e06f1a;fill-opacity:1;fill-rule:nonzero;stroke:none;stroke-width:0.35277775"
         id="path1460"
         inkscape:connector-curvature="0" />
      <path
         d="m 82.568009,69.128929 h 0.459317 c 0,-0.58491 0,-1.19768 -0.264584,-1.74202 -0.167568,0.58561 -0.194733,1.67146 -0.194733,1.74202 m -1.601962,2.13042 c 0,-0.0977 0.04269,-0.15346 0.125235,-0.19509 l 0.08431,-0.0282 c 0.361244,-0.8068 0.7239,-3.6202 0.946502,-5.48604 l -0.793398,0.0279 c -0.09772,0 -0.1397,-0.042 -0.125587,-0.13935 0.0702,-0.62724 -0.0141,-1.46191 0,-1.46191 0.01376,-0.0974 0.05574,-0.13935 0.153458,-0.13935 h 2.032704 c 0.1397,0 0.947208,5.9877 1.503891,7.22701 l 0.111125,0.0282 c 0.09772,0.0134 0.1397,0.0692 0.1397,0.16686 0,0.19403 -0.05574,1.99108 -0.05574,1.92193 0,0.18168 -0.0141,0.22225 -0.139348,0.24907 h -1.865841 c -0.09737,0 -0.1397,-0.0406 -0.1397,-0.13759 v -2.06163 c 0,-0.0974 0.04233,-0.13864 0.1397,-0.13864 h 0.208843 v -0.11183 c 0,-0.26459 -0.05574,-0.80786 -0.09772,-0.94686 l -0.08326,-0.0561 h -0.612775 c 0,0 -0.08325,0.19509 -0.08325,0.27834 0,0.23813 0.04127,0.83644 0.04127,0.83644 h 0.09737 c 0.09737,0 0.1397,0.0413 0.1397,0.13864 v 2.06163 c 0,0.097 -0.04233,0.13759 -0.1397,0.13759 h -1.4478 c -0.09701,0 -0.1397,-0.0406 -0.1397,-0.13759 z"
         style="fill:#e06f1a;fill-opacity:1;fill-rule:nonzero;stroke:none;stroke-width:0.35277775"
         id="path1464"
         inkscape:connector-curvature="0" />
      <path
         d="m 46.6498,77.533609 c 0.537634,-0.14605 0.537634,-0.51118 0.537634,-0.91511 0,-0.2233 0.05151,-0.8516 -0.458259,-0.8516 -0.02716,0 -0.143933,-0.0247 -0.143933,0.0395 v 1.58115 z m -2.103966,5.64797 c 0.01199,0.0261 -0.05292,-0.99448 -0.05292,-1.22802 v -0.0275 c 0,-0.11782 0.692856,-0.11782 0.692856,-0.11782 v -6.15774 h -0.286809 c -0.235655,0 -0.341136,-0.078 -0.341136,-0.26035 v -1.17969 c 0,-0.18132 0.105481,-0.26035 0.341136,-0.26035 l 2.222147,0.0406 c 1.477081,0.0261 1.464381,1.96074 1.464381,2.6797 0,1.0982 -0.10407,2.60174 -2.00025,2.53577 v 2.60209 c 0.365831,-0.0247 0.614539,0.0399 0.705555,0.10477 v 1.36102 c 0,0.18239 -0.103363,0.26105 -0.339724,0.248 -0.301273,0.0131 -1.7653,-0.0526 -2.052109,-0.0656 -0.235655,-0.013 -0.341136,-0.013 -0.341136,-0.013 0,0 0,-0.0783 -0.01199,-0.26176"
         style="fill:#e06f1a;fill-opacity:1;fill-rule:nonzero;stroke:none;stroke-width:0.35277775"
         id="path1468"
         inkscape:connector-curvature="0" />
      <path
         d="m 50.912238,80.968359 c 0.143933,0 0.353483,-0.0515 0.353483,-0.26106 0,-0.496 0.03916,-2.82433 0.03916,-3.32175 v -1.52965 -1.78999 c -0.11818,-0.1457 -0.19685,-0.1965 -0.365478,-0.1965 -0.20955,0 -0.432152,0.13053 -0.432152,0.35137 0,0.47131 -0.05292,2.77319 -0.05292,3.27131 v 1.41181 1.65982 c 0.05292,0.27446 0.144638,0.40464 0.457905,0.40464 m 0,1.1497 c -0.83573,0 -1.869369,-0.24694 -1.869369,-1.30598 v -6.48582 c 0,-0.66675 0.406047,-1.61996 1.203677,-1.61996 h 1.268237 c 0.496358,0 1.201561,0.61419 1.201561,1.11125 v 6.2357 c 0,0.91511 -0.142875,1.89689 -1.201561,2.06481 z"
         style="fill:#e06f1a;fill-opacity:1;fill-rule:nonzero;stroke:none;stroke-width:0.35277775"
         id="path1472"
         inkscape:connector-curvature="0" />
      <path
         d="m 56.327906,77.467109 0.05221,0.10442 h 0.117475 c 0.4572,0 0.980722,-0.12911 0.980722,-0.67804 0,-0.37888 -0.195439,-0.57573 -0.575381,-0.57573 -0.575027,0 -0.575027,0.36618 -0.575027,0.87383 z m -3.072342,4.35434 v -0.82268 c 0.05221,-0.20955 0.706614,0.0522 0.706614,-0.56339 v -1.1497 c 0,-1.03293 0,-1.60867 -0.05292,-2.667 -0.07832,-0.32738 -0.457553,-0.37924 -0.705908,-0.40569 0,-0.35384 -0.05292,-1.96039 -0.05292,-2.31458 v -0.0519 c 0.02646,-0.0275 0.07902,-0.0536 0.105127,-0.0536 h 4.628444 c 1.595967,0.35454 2.470503,1.00718 2.470503,2.79894 0,2.39219 -1.987197,2.53612 -3.934883,2.58833 v 0.18486 c 0,0.35066 0.0254,0.60007 0.05292,1.03328 0.09031,0.20743 0.208845,0.3115 0.365125,0.36477 0.104775,0.0392 0.75812,0.0522 0.915106,0.0776 0.02611,0.51083 0.05256,1.51801 0.05256,2.19675 l -0.248356,0.27411 c 0,0 -2.915708,0.0265 -3.948641,0.0536 h -0.156633 c -0.02681,0 -0.143933,-0.1838 -0.143933,-0.26176 -0.07832,-0.49812 -0.05221,-0.74471 -0.05221,-1.28199"
         style="fill:#e06f1a;fill-opacity:1;fill-rule:nonzero;stroke:none;stroke-width:0.35277775"
         id="path1476"
         inkscape:connector-curvature="0" />
      <path
         d="m 60.769695,75.195079 c -0.09631,0 -0.138994,-0.0388 -0.138994,-0.13159 v -1.65981 c 0,-0.091 0.04269,-0.13159 0.138994,-0.13159 h 2.232025 c 0.108303,0 0.151695,0.0406 0.162631,0.13159 -0.01094,-0.13159 0.04233,0.14252 0.04233,0.2734 v 0.0554 0.0497 c -0.03316,0.43039 0.02928,1.38642 0.02928,1.29434 0,0.0663 -0.02046,0.0921 -0.07444,0.0921 h -0.25647 c -0.05292,0 -0.07444,0.0265 -0.07444,0.091 0,-0.091 -0.0321,1.09855 -0.0321,1.64818 v 0.75776 0.49636 c 0,0.56233 0.398286,0.53622 0.602545,0.53622 0.279047,0 0.418747,-0.0497 0.418747,-0.41698 v -3.04659 c 0,-0.0533 -0.02081,-0.0783 -0.07585,-0.0783 h -0.129117 c -0.05292,0 -0.07444,-0.0261 -0.07444,-0.0928 v -1.65982 c 0,-0.091 0.04339,-0.13158 0.1397,-0.13158 h 2.140655 c 0.09666,0 0.1397,0.0406 0.1397,0.13158 v 1.68522 c 0,0.0924 -0.04304,0.133 -0.1397,0.133 h -0.161925 c -0.09701,0 -0.118533,-0.0268 -0.2032,0.19509 0,-0.12947 -0.02258,3.29494 -0.05397,4.95405 0,1.20298 -0.624064,2.17312 -1.980141,2.17312 -1.3335,0 -2.074686,-0.71967 -2.074686,-1.87149 v -5.34741 c 0,-0.0907 -0.04339,-0.13017 -0.140759,-0.13017 z"
         style="fill:#e06f1a;fill-opacity:1;fill-rule:nonzero;stroke:none;stroke-width:0.35277775"
         id="path1480"
         inkscape:connector-curvature="0" />
      <path
         d="m 66.99393,75.899929 h -0.314325 c -0.09137,0 -0.129823,-0.0406 -0.129823,-0.133 v -1.84185 c 0,-0.0896 0.03845,-0.13229 0.129823,-0.13229 h 2.210505 l 0.05221,0.18415 v 0.45826 0.65228 c 0,0.23636 -0.05221,0.81245 -0.03986,0.54963 -0.01235,0.18345 -0.352425,0.26282 -0.535163,0.26282 h -0.05327 c -0.182386,0 -0.261761,0.0773 -0.261761,0.2607 v 3.88373 c 0,0.18274 0.07937,0.27411 0.261761,0.28681 h 0.01376 c 0.182739,0.0134 0.261056,-0.0663 0.261056,-0.24871 v -1.05868 c 0,-0.18239 0.339725,-0.26106 0.522817,-0.26106 h 0.01305 c 0.183797,0 0.262114,0.0787 0.262114,0.26106 v 3.20428 c 0,0.18238 -0.07832,0.2607 -0.262114,0.2607 h -2.391834 c -0.09172,0 -0.13088,-0.0399 -0.144638,-0.13123 -0.0127,0.0653 -0.03845,-0.26176 -0.02575,-0.20779 -0.0127,-0.0914 -0.0127,-0.1718 -0.0127,-0.26423 0,-0.37818 -0.02611,-1.55434 -0.02611,-1.42275 0,-0.0917 0.03881,-0.13159 0.130528,-0.13159 h 0.339725 z"
         style="fill:#e06f1a;fill-opacity:1;fill-rule:nonzero;stroke:none;stroke-width:0.35277775"
         id="path1484"
         inkscape:connector-curvature="0" />
      <path
         d="m 74.559355,76.794609 c 0.339725,0 0.850193,-0.0533 1.059039,-0.0663 v -0.20673 c 0,-0.19861 -0.456848,-1.41393 -0.549275,-1.41393 -0.366537,0 -0.719666,1.20297 -0.719666,1.49295 0,0.14076 0.09243,0.19403 0.209902,0.19403 m -4.563533,3.89608 c 0,-0.39123 -0.06456,-1.18851 0.184855,-1.5427 0.220486,-0.26105 0.718256,0.0388 0.992011,-0.15698 0.275167,-0.15805 0.58914,-1.54305 0.759177,-1.9618 0.221546,-0.57609 1.817158,-4.86375 2.039408,-4.88844 0.509765,-0.0148 1.12395,-0.10689 1.634421,-0.10689 0.418042,0 1.543402,-0.10478 1.908879,0.17215 0.248709,0.16792 0.418396,1.10878 0.510117,1.37054 0.156988,0.45826 2.104673,5.53226 2.274713,5.53226 h 0.888645 c 0.05327,0 0.106188,0.14429 0.106188,0.14429 v 1.86829 c 0,0.20955 -0.537988,0.14499 -0.550333,0.14499 h -0.313267 c -0.06632,-0.10442 -0.104775,-0.10442 -0.209198,-0.10442 -0.06597,0 -0.105127,0 -0.156985,0.10442 -0.432155,0 -2.405946,0.0646 -2.851505,0.0646 h -0.691795 c -0.431448,0 -1.42593,-0.0646 -1.42593,-0.0646 l -0.03986,-0.0399 v -2.0133 c 0,-0.0653 0.131233,-0.10442 0.131233,-0.10442 0,0 0.379942,-0.0265 0.535869,-0.0656 0.09313,0 0.45861,-0.0522 0.549981,-0.0522 v -0.0787 c 0.06562,-0.60184 -0.484364,-0.53481 -0.888296,-0.50977 -0.563033,0 -0.90311,0 -1.465085,0.0653 -0.236008,0.0787 -0.262115,0.36513 -0.262115,0.61454 h 1.216732 v 2.18405 c 0,0 -0.327025,0.0646 -0.4318,0.0646 h -1.896534 c -0.352777,0 -1.960738,-0.0646 -2.313516,-0.0646 -0.209197,-0.066 -0.236008,-0.34043 -0.236008,-0.57573"
         style="fill:#e06f1a;fill-opacity:1;fill-rule:nonzero;stroke:none;stroke-width:0.35277775"
         id="path1488"
         inkscape:connector-curvature="0" />
      <path
         d="m 82.902019,77.442309 c 0,0.31538 0,0.62794 0.05221,0.94227 0.889352,0 1.687687,-0.2226 1.687687,-1.26788 0,-0.8509 -0.457552,-1.2573 -1.281642,-1.2573 -0.182737,0 -0.26176,0 -0.458258,0.0543 v 0.90134 z m -0.954262,4.47287 v -5.9503 l -0.05186,-0.0511 c -0.09172,0.0123 -0.183798,0.0123 -0.274815,0.0123 -0.248708,0 -0.49671,-0.0261 -0.73166,-0.0667 0,-0.21978 -0.05257,-1.22661 -0.05257,-1.46403 -0.169685,-0.14182 2.06516,-0.11818 2.354085,-0.11818 1.110192,0 2.510721,0.1718 2.510721,2.26342 v 0.65335 c 0,0.86254 -0.877358,1.36031 -1.426281,1.5441 v 0.0508 c 0.483658,0.11783 0.667456,0.26141 0.850193,0.6918 0.195792,0.47202 -0.105126,2.32763 0.510117,2.32763 0.14323,0 0.273405,-0.13018 0.273405,-0.29916 v -0.83784 c 0,-0.0907 0.03986,-0.12841 0.131233,-0.12841 h 0.169692 c 0.09102,0 0.131234,0.0378 0.131234,0.12841 v 1.38782 c 0,0.6022 -0.509765,1.30705 -1.137357,1.30705 -0.824087,0 -0.954617,-1.15077 -0.980368,-1.76601 0,-2.28671 -0.19685,-2.51072 -1.321507,-2.51072 v 2.8381 h 0.772232 c 0.09102,0 0.130881,0.0384 0.130881,0.13158 v 1.22767 c 0,0.0903 -0.03986,0.13088 -0.130881,0.13088 h -2.602794 c -0.09102,0 -0.129471,-0.0406 -0.129471,-0.13088 v -1.24001 c 0,-0.0924 0.03845,-0.13159 0.129471,-0.13159 z"
         style="fill:#e06f1a;fill-opacity:1;fill-rule:nonzero;stroke:none;stroke-width:0.35277775"
         id="path1492"
         inkscape:connector-curvature="0" />
      <path
         d="m 104.39388,59.927109 c 0.52246,0.13123 1.02587,0.30374 1.50742,0.51399 l -1.32327,-1.90323 c 0,0 -0.0208,0.19226 -0.0423,0.31926 -0.0222,0.12665 -0.0956,0.133 -0.18733,0.13159 -0.0515,-7.1e-4 -0.22084,-0.004 -0.35842,-0.005 l -0.001,0.10442 0.48083,0.27023 z"
         style="fill:#e06f1a;fill-opacity:1;fill-rule:nonzero;stroke:none;stroke-width:0.35277775"
         id="path1496"
         inkscape:connector-curvature="0" />
      <path
         d="m 97.886609,78.064819 c 0,0 0.92075,3.8728 1.018468,4.36492 0.09878,0.49177 0.398992,0.61948 0.693915,0.64629 0.295979,0.0282 0.890758,0.0826 0.890758,0.0826 l 0.12136,-0.70132 -1.412874,-4.05483 c -0.446969,-0.0826 -0.885119,-0.1972 -1.311627,-0.33761"
         style="fill:#e06f1a;fill-opacity:1;fill-rule:nonzero;stroke:none;stroke-width:0.35277775"
         id="path1500"
         inkscape:connector-curvature="0" />
      <path
         d="m 109.62836,73.996169 c 0,0 4.36068,-1.00542 5.44336,-1.27106 1.08373,-0.26529 0.58067,-1.75013 0.58067,-1.75013 l -5.34176,1.85208 c -0.19932,0.40217 -0.42757,0.79269 -0.68227,1.16911"
         style="fill:#e06f1a;fill-opacity:1;fill-rule:nonzero;stroke:none;stroke-width:0.35277775"
         id="path1504"
         inkscape:connector-curvature="0" />
      <path
         d="m 104.74736,62.532969 0.26247,0.86113 -0.71932,-0.54257 -0.73695,0.51576 0.29351,-0.8509 -0.71861,-0.54151 0.89959,0.0159 0.29351,-0.8509 0.26317,0.86043 0.89993,0.0166 z m 3.81776,11.74856 c 2.24402,-2.61056 2.91148,-6.25299 1.39877,-9.37013 -0.47202,-0.97367 -1.11831,-1.80905 -1.8856,-2.49767 l -0.44239,-1.4665 0.76271,-0.6424 0.0335,-0.2974 -1.004,0.24977 0.0423,-0.3683 0.53728,-0.48966 -0.008,-0.28469 -0.45368,0.10972 0.28046,-0.8061 -0.5838,-10e-4 -1.27565,2.61302 c -0.54327,-0.24976 -1.11407,-0.44661 -1.70426,-0.58525 -0.7359,-0.17216 -0.98461,0.81597 -1.76072,0.82902 -0.76799,0.0127 -2.04505,-0.88053 -2.958744,-0.97155 -0.70979,-0.0713 -0.66675,1.20862 -0.652288,1.88137 0.0092,0.44802 2.585512,1.78082 3.588812,2.63736 0.06,0.0512 0.1016,0.1009 0.13017,0.14782 l -3.293178,-0.66675 c 0,0 -1.326091,0.34043 -1.683104,0.43321 -0.357362,0.0931 -0.231421,0.41063 0.146756,0.33373 0.218369,-0.0441 0.70979,-0.145 1.086908,-0.2219 0.277284,-0.0568 0.496007,-0.0765 0.540457,0.31044 0.04409,0.38806 0.114652,1.00048 0.114652,1.00048 l 0.140758,0.0282 c 0,0 0.291748,-0.57996 0.320675,-0.64875 0.02999,-0.0699 0.09102,-0.13089 0.164746,0.0617 0.0455,0.11783 0.15346,0.40287 0.23001,0.6029 0.0469,0.12347 0.13653,0.13229 0.25683,-0.0497 0.12065,-0.18239 0.35842,-0.54258 0.35842,-0.54258 l 0.16545,0.8121 0.15487,0.0635 0.23072,-0.80116 c 0.004,10e-4 0.007,0.002 0.01,0.002 0.5408,0.16369 1.06891,0.38276 1.5621,0.67486 0.34043,0.20179 0.66392,0.44203 0.95602,0.72002 0.51541,-0.0656 1.90077,-0.0931 2.56682,1.34444 0,0 -0.76306,-0.55351 -1.64042,-0.0349 0.40287,0.10972 1.43051,0.51294 1.48413,1.77659 0,0 -0.41063,-0.66498 -1.24848,-0.51823 0.26917,0.2406 0.72955,0.79658 0.41875,1.60479 0,0 -0.0744,-0.51329 -0.59866,-0.69921 -0.0229,0.0663 -0.049,0.13124 -0.0758,0.19544 -0.21696,0.5073 -0.54645,0.93451 -0.91969,1.29046 -0.37536,0.3556 -0.79693,0.64418 -1.2379,0.87983 0.38417,-0.32032 0.72919,-0.68121 1.00612,-1.0802 0.27482,-0.39758 0.47978,-0.83468 0.56727,-1.27706 0.0448,-0.22048 0.0586,-0.44238 0.0423,-0.65581 -0.009,-0.10337 -0.0243,-0.21908 -0.0476,-0.30621 -0.0251,-0.11818 -0.0533,-0.20567 -0.0917,-0.30551 -0.1489,-0.38453 -0.40995,-0.70697 -0.73133,-0.96379 -0.34079,-0.27093 -0.74119,-0.46743 -1.16911,-0.60501 -0.4325,1.44956 -1.77941,2.93299 -3.691819,3.86186 -2.904418,1.4097 -6.00992,1.004 -6.936668,-0.90523 -0.9271,-1.90959 0.676629,-4.60022 3.580696,-6.00992 0.41416,-0.20109 0.832554,-0.36372 1.248127,-0.49178 -6.531319,-0.19225 -6.696419,4.463 -6.696419,4.463 0,0 -0.503063,-0.35242 -0.731308,-1.14617 -0.371475,0.81739 -1.049515,2.82434 0.293862,4.50321 0,0 -1.021996,-0.16016 -1.867959,-0.27799 0.0508,0.29457 0.139349,0.58067 0.27164,0.85372 0.883709,1.82033 3.385609,2.52483 6.12916,1.93393 0.09243,-0.0201 0.22084,0.0342 0.116417,0.20249 -0.788458,1.2693 -4.153252,6.68832 -4.278487,6.88411 -0.141465,0.22084 -0.168981,0.52282 0.276225,0.762 0.4445,0.23918 1.161695,0.62477 1.161695,0.62477 l 1.5367,-3.82517 c 0,0 2.950282,-0.0554 4.831999,-2.17805 2.360079,0.9846 5.199239,0.96661 7.780159,-0.28646 0.31256,-0.15169 0.61207,-0.31961 0.90064,-0.49847 l 6.84283,4.25344 0.62266,-1.15817 c 0,0 -3.65125,-2.64442 -4.54237,-3.30482 -0.89112,-0.6604 -0.68051,-1.70568 -0.68051,-1.70568"
         style="fill:#e06f1a;fill-opacity:1;fill-rule:nonzero;stroke:none;stroke-width:0.35277775"
         id="path1508"
         inkscape:connector-curvature="0" />
    </g>
  </g>
</svg>
