<?xml version="1.0" encoding="UTF-8" standalone="no"?>
<!-- Created with Inkscape (http://www.inkscape.org/) -->

<svg
   xmlns:dc="http://purl.org/dc/elements/1.1/"
   xmlns:cc="http://creativecommons.org/ns#"
   xmlns:rdf="http://www.w3.org/1999/02/22-rdf-syntax-ns#"
   xmlns:svg="http://www.w3.org/2000/svg"
   xmlns="http://www.w3.org/2000/svg"
   xmlns:sodipodi="http://sodipodi.sourceforge.net/DTD/sodipodi-0.dtd"
   xmlns:inkscape="http://www.inkscape.org/namespaces/inkscape"
   width="28.172701mm"
   height="24.741461mm"
   viewBox="0 0 28.172701 24.741461"
   version="1.1"
   id="svg875"
   inkscape:export-filename="/home/donhilo/Documentos/code/webassets/culturapopular.cl/favicon.png"
   inkscape:export-xdpi="1803.16"
   inkscape:export-ydpi="1803.16"
   inkscape:version="0.92.3 (2405546, 2018-03-11)"
   sodipodi:docname="logo_cp_naranjo_perro.svg">
  <defs
     id="defs869" />
  <sodipodi:namedview
     id="base"
     pagecolor="#ffffff"
     bordercolor="#666666"
     borderopacity="1.0"
     inkscape:pageopacity="0.0"
     inkscape:pageshadow="2"
     inkscape:zoom="1.4"
     inkscape:cx="-37.552033"
     inkscape:cy="-9.6694559"
     inkscape:document-units="mm"
     inkscape:current-layer="layer1"
     showgrid="false"
     fit-margin-top="0"
     fit-margin-left="0"
     fit-margin-right="0"
     fit-margin-bottom="0"
     inkscape:window-width="1366"
     inkscape:window-height="703"
     inkscape:window-x="0"
     inkscape:window-y="0"
     inkscape:window-maximized="1" />
  <metadata
     id="metadata872">
    <rdf:RDF>
      <cc:Work
         rdf:about="">
        <dc:format>image/svg+xml</dc:format>
        <dc:type
           rdf:resource="http://purl.org/dc/dcmitype/StillImage" />
        <dc:title></dc:title>
      </cc:Work>
    </rdf:RDF>
  </metadata>
  <g
     inkscape:label="Capa 1"
     inkscape:groupmode="layer"
     id="layer1"
     transform="translate(-98.550557,-209.03403)">
    <path
       inkscape:connector-curvature="0"
       id="path1496"
       style="fill:#e06f1a;fill-opacity:1;fill-rule:nonzero;stroke:none;stroke-width:0.35277775"
       d="m 115.34814,210.54397 c 0.52246,0.13123 1.02587,0.30374 1.50742,0.51399 l -1.32327,-1.90323 c 0,0 -0.0208,0.19226 -0.0423,0.31926 -0.0222,0.12665 -0.0956,0.133 -0.18733,0.13159 -0.0515,-7.1e-4 -0.22084,-0.004 -0.35842,-0.005 l -10e-4,0.10442 0.48083,0.27023 z" />
    <path
       inkscape:connector-curvature="0"
       id="path1500"
       style="fill:#e06f1a;fill-opacity:1;fill-rule:nonzero;stroke:none;stroke-width:0.35277775"
       d="m 108.84087,228.68168 c 0,0 0.92075,3.8728 1.01847,4.36492 0.0988,0.49177 0.39899,0.61948 0.69392,0.64629 0.29598,0.0282 0.89075,0.0826 0.89075,0.0826 l 0.12136,-0.70132 -1.41287,-4.05483 c -0.44697,-0.0826 -0.88512,-0.1972 -1.31163,-0.33761" />
    <path
       inkscape:connector-curvature="0"
       id="path1504"
       style="fill:#e06f1a;fill-opacity:1;fill-rule:nonzero;stroke:none;stroke-width:0.35277775"
       d="m 120.58262,224.61303 c 0,0 4.36068,-1.00542 5.44337,-1.27106 1.08373,-0.26529 0.58067,-1.75013 0.58067,-1.75013 l -5.34177,1.85208 c -0.19932,0.40217 -0.42757,0.79269 -0.68227,1.16911" />
    <path
       inkscape:connector-curvature="0"
       id="path1508"
       style="fill:#e06f1a;fill-opacity:1;fill-rule:nonzero;stroke:none;stroke-width:0.35277775"
       d="m 115.70162,213.14983 0.26247,0.86113 -0.71932,-0.54257 -0.73695,0.51576 0.29351,-0.8509 -0.71861,-0.54151 0.89959,0.0159 0.29351,-0.8509 0.26317,0.86043 0.89993,0.0166 z m 3.81776,11.74856 c 2.24402,-2.61056 2.91148,-6.25299 1.39877,-9.37013 -0.47202,-0.97367 -1.11831,-1.80905 -1.8856,-2.49767 l -0.44239,-1.4665 0.76271,-0.6424 0.0335,-0.2974 -1.004,0.24977 0.0423,-0.3683 0.53728,-0.48966 -0.008,-0.28469 -0.45368,0.10972 0.28046,-0.8061 -0.5838,-0.001 -1.27565,2.61302 c -0.54327,-0.24976 -1.11407,-0.44661 -1.70426,-0.58525 -0.7359,-0.17216 -0.98461,0.81597 -1.76072,0.82902 -0.76799,0.0127 -2.04505,-0.88053 -2.95874,-0.97155 -0.70979,-0.0713 -0.66675,1.20862 -0.65229,1.88137 0.009,0.44802 2.58551,1.78082 3.58881,2.63736 0.06,0.0512 0.1016,0.1009 0.13017,0.14782 l -3.29317,-0.66675 c 0,0 -1.32609,0.34043 -1.68311,0.43321 -0.35736,0.0931 -0.23142,0.41063 0.14676,0.33373 0.21837,-0.0441 0.70979,-0.145 1.08691,-0.2219 0.27728,-0.0568 0.496,-0.0765 0.54045,0.31044 0.0441,0.38806 0.11466,1.00048 0.11466,1.00048 l 0.14075,0.0282 c 0,0 0.29175,-0.57996 0.32068,-0.64875 0.03,-0.0699 0.091,-0.13089 0.16474,0.0617 0.0455,0.11783 0.15346,0.40287 0.23001,0.6029 0.0469,0.12347 0.13653,0.13229 0.25683,-0.0497 0.12065,-0.18239 0.35842,-0.54258 0.35842,-0.54258 l 0.16545,0.8121 0.15487,0.0635 0.23072,-0.80116 c 0.004,0.001 0.007,0.002 0.01,0.002 0.5408,0.16369 1.06892,0.38276 1.5621,0.67486 0.34044,0.20179 0.66392,0.44203 0.95602,0.72002 0.51541,-0.0656 1.90078,-0.0931 2.56683,1.34444 0,0 -0.76306,-0.55351 -1.64043,-0.0349 0.40288,0.10972 1.43051,0.51294 1.48414,1.77659 0,0 -0.41064,-0.66498 -1.24848,-0.51823 0.26916,0.2406 0.72954,0.79658 0.41874,1.60479 0,0 -0.0744,-0.51329 -0.59866,-0.69921 -0.0229,0.0663 -0.049,0.13124 -0.0758,0.19544 -0.21695,0.5073 -0.54645,0.93451 -0.91969,1.29046 -0.37535,0.3556 -0.79693,0.64418 -1.2379,0.87983 0.38417,-0.32032 0.7292,-0.68121 1.00612,-1.0802 0.27482,-0.39758 0.47978,-0.83468 0.56727,-1.27706 0.0448,-0.22048 0.0586,-0.44238 0.0423,-0.65581 -0.009,-0.10337 -0.0243,-0.21908 -0.0476,-0.30621 -0.0251,-0.11818 -0.0533,-0.20567 -0.0917,-0.30551 -0.1489,-0.38453 -0.40995,-0.70697 -0.73133,-0.96379 -0.34079,-0.27093 -0.74119,-0.46743 -1.16911,-0.60501 -0.4325,1.44956 -1.77941,2.93299 -3.69181,3.86186 -2.90442,1.4097 -6.00993,1.004 -6.93667,-0.90523 -0.9271,-1.90959 0.67663,-4.60022 3.58069,-6.00992 0.41416,-0.20109 0.83256,-0.36372 1.24813,-0.49178 -6.53132,-0.19226 -6.69642,4.46299 -6.69642,4.46299 0,0 -0.50306,-0.35242 -0.73131,-1.14617 -0.371471,0.81739 -1.049511,2.82434 0.29387,4.50321 0,0 -1.022,-0.16016 -1.867963,-0.27799 0.0508,0.29457 0.139349,0.58067 0.27164,0.85372 0.883709,1.82033 3.385613,2.52483 6.129163,1.93393 0.0924,-0.0201 0.22084,0.0342 0.11641,0.20249 -0.78845,1.2693 -4.15325,6.68832 -4.27848,6.88411 -0.14147,0.22084 -0.16898,0.52282 0.27622,0.762 0.4445,0.23918 1.1617,0.62477 1.1617,0.62477 l 1.5367,-3.82517 c 0,0 2.95028,-0.0554 4.832,-2.17805 2.36007,0.9846 5.19923,0.96661 7.78015,-0.28646 0.31256,-0.15169 0.61207,-0.31961 0.90064,-0.49847 l 6.84283,4.25344 0.62266,-1.15817 c 0,0 -3.65125,-2.64442 -4.54237,-3.30482 -0.89112,-0.6604 -0.68051,-1.70568 -0.68051,-1.70568" />
  </g>
</svg>
